<?xml version="1.0" encoding="UTF-8"?>
<!--Generator: Apple Native CoreSVG 232.5-->
<!DOCTYPE svg
PUBLIC "-//W3C//DTD SVG 1.1//EN"
       "http://www.w3.org/Graphics/SVG/1.1/DTD/svg11.dtd">
<svg version="1.1" xmlns="http://www.w3.org/2000/svg" xmlns:xlink="http://www.w3.org/1999/xlink" width="116.553" height="110.815">
 <g>
  <rect height="110.815" opacity="0" width="116.553" x="0" y="0"/>
  <path d="M44.1895 97.522L72.3633 97.522L72.3633 61.9751C72.3633 59.729 70.8984 58.2642 68.6523 58.2642L47.9492 58.2642C45.6543 58.2642 44.1895 59.729 44.1895 61.9751ZM25.0977 102.551L91.1621 102.551C98.0957 102.551 102.148 98.5962 102.148 91.7603L102.148 37.8052L94.2871 32.4341L94.2871 89.7583C94.2871 92.9321 92.5781 94.6899 89.502 94.6899L26.7578 94.6899C23.6328 94.6899 21.9238 92.9321 21.9238 89.7583L21.9238 32.4829L14.0625 37.8052L14.0625 91.7603C14.0625 98.5962 18.1152 102.551 25.0977 102.551ZM0 48.2056C0 50.2075 1.5625 52.1118 4.19922 52.1118C5.56641 52.1118 6.68945 51.3794 7.71484 50.5493L56.5918 9.53369C57.666 8.55713 58.9844 8.55713 60.0586 9.53369L108.936 50.5493C109.912 51.3794 111.035 52.1118 112.402 52.1118C114.697 52.1118 116.553 50.6958 116.553 48.3521C116.553 46.8872 116.064 45.9106 115.039 45.0317L64.209 2.30713C60.5957-0.769043 56.1035-0.769043 52.4414 2.30713L1.5625 45.0317C0.488281 45.9106 0 47.0825 0 48.2056ZM89.8926 26.1841L102.148 36.5356L102.148 13.9771C102.148 11.8286 100.781 10.4614 98.6328 10.4614L93.4082 10.4614C91.3086 10.4614 89.8926 11.8286 89.8926 13.9771Z" fill="#ffffff" fill-opacity="0.85"/>
 </g>
</svg>
