<?xml version="1.0" encoding="UTF-8"?>
<!--Generator: Apple Native CoreSVG 232.5-->
<!DOCTYPE svg
PUBLIC "-//W3C//DTD SVG 1.1//EN"
       "http://www.w3.org/Graphics/SVG/1.1/DTD/svg11.dtd">
<svg version="1.1" xmlns="http://www.w3.org/2000/svg" xmlns:xlink="http://www.w3.org/1999/xlink" width="116.553" height="110.815">
 <g>
  <rect height="110.815" opacity="0" width="116.553" x="0" y="0"/>
  <path d="M70.8496 94.6899L45.6543 94.6899L45.6543 62.4146C45.6543 60.1685 47.168 58.7036 49.4141 58.7036L67.1387 58.7036C69.3848 58.7036 70.8496 60.1685 70.8496 62.4146ZM15.2344 91.7603C15.2344 98.5474 19.3359 102.551 26.2207 102.551L90.4297 102.551C97.3145 102.551 101.367 98.5474 101.367 91.7603L101.367 53.0884L61.2305 19.4458C59.375 17.8833 57.1777 17.9321 55.3711 19.4458L15.2344 53.0884ZM0 48.2056C0 50.2075 1.5625 52.1118 4.19922 52.1118C5.56641 52.1118 6.68945 51.3794 7.71484 50.5493L56.5918 9.53369C57.666 8.55713 58.9844 8.55713 60.0586 9.53369L108.936 50.5493C109.912 51.3794 111.035 52.1118 112.402 52.1118C114.697 52.1118 116.553 50.6958 116.553 48.3521C116.553 46.8872 116.064 45.9106 115.039 45.0317L64.209 2.30713C60.5957-0.769043 56.1035-0.769043 52.4414 2.30713L1.5625 45.0317C0.488281 45.9106 0 47.0825 0 48.2056ZM89.1113 26.1841L101.367 36.5356L101.367 13.9771C101.367 11.8286 100 10.4614 97.8516 10.4614L92.627 10.4614C90.5273 10.4614 89.1113 11.8286 89.1113 13.9771Z" fill="#ffffff" fill-opacity="0.85"/>
 </g>
</svg>
