<?xml version="1.0" encoding="UTF-8"?>
<!--Generator: Apple Native CoreSVG 232.5-->
<!DOCTYPE svg
PUBLIC "-//W3C//DTD SVG 1.1//EN"
       "http://www.w3.org/Graphics/SVG/1.1/DTD/svg11.dtd">
<svg version="1.1" xmlns="http://www.w3.org/2000/svg" xmlns:xlink="http://www.w3.org/1999/xlink" width="107.617" height="107.275">
 <g>
  <rect height="107.275" opacity="0" width="107.617" x="0" y="0"/>
  <path d="M30.0293 107.275C32.4219 107.275 34.082 106.006 37.0605 103.369L53.9062 88.3789L85.2539 88.3789C99.8047 88.3789 107.617 80.3223 107.617 66.0156L107.617 28.6133C107.617 14.3066 99.8047 6.25 85.2539 6.25L22.3633 6.25C7.8125 6.25 0 14.2578 0 28.6133L0 66.0156C0 80.3711 7.8125 88.3789 22.3633 88.3789L24.707 88.3789L24.707 101.074C24.707 104.834 26.6113 107.275 30.0293 107.275ZM32.0312 98.3398L32.0312 84.1797C32.0312 81.543 31.0059 80.5176 28.3691 80.5176L22.3633 80.5176C12.5 80.5176 7.86133 75.4883 7.86133 65.9668L7.86133 28.6133C7.86133 19.0918 12.5 14.1113 22.3633 14.1113L85.2539 14.1113C95.0684 14.1113 99.7559 19.0918 99.7559 28.6133L99.7559 65.9668C99.7559 75.4883 95.0684 80.5176 85.2539 80.5176L53.6133 80.5176C50.8789 80.5176 49.5117 80.9082 47.6562 82.8125Z" fill="#ffffff" fill-opacity="0.85"/>
  <path d="M28.6621 33.8379L78.3691 33.8379C79.9316 33.8379 81.1523 32.6172 81.1523 31.0059C81.1523 29.4922 79.9316 28.2227 78.3691 28.2227L28.6621 28.2227C27.0996 28.2227 25.8301 29.4922 25.8301 31.0059C25.8301 32.6172 27.0996 33.8379 28.6621 33.8379ZM28.6621 49.7559L78.3691 49.7559C79.9316 49.7559 81.1523 48.4863 81.1523 46.875C81.1523 45.3613 79.9316 44.0918 78.3691 44.0918L28.6621 44.0918C27.0996 44.0918 25.8301 45.3613 25.8301 46.875C25.8301 48.4863 27.0996 49.7559 28.6621 49.7559ZM28.6621 65.625L60.9863 65.625C62.5488 65.625 63.7695 64.4043 63.7695 62.8418C63.7695 61.2305 62.5488 59.9609 60.9863 59.9609L28.6621 59.9609C27.0996 59.9609 25.8301 61.2305 25.8301 62.8418C25.8301 64.4043 27.0996 65.625 28.6621 65.625Z" fill="#ffffff" fill-opacity="0.85"/>
 </g>
</svg>
