<?xml version="1.0" encoding="UTF-8"?>
<!--Generator: Apple Native CoreSVG 232.5-->
<!DOCTYPE svg
PUBLIC "-//W3C//DTD SVG 1.1//EN"
       "http://www.w3.org/Graphics/SVG/1.1/DTD/svg11.dtd">
<svg version="1.1" xmlns="http://www.w3.org/2000/svg" xmlns:xlink="http://www.w3.org/1999/xlink" width="80.5664" height="80.6152">
 <g>
  <rect height="80.6152" opacity="0" width="80.5664" x="0" y="0"/>
  <path d="M0 40.2832C0 42.6758 2.00195 44.6289 4.3457 44.6289L35.9375 44.6289L35.9375 76.2207C35.9375 78.5645 37.8906 80.5664 40.2832 80.5664C42.6758 80.5664 44.6777 78.5645 44.6777 76.2207L44.6777 44.6289L76.2207 44.6289C78.5645 44.6289 80.5664 42.6758 80.5664 40.2832C80.5664 37.8906 78.5645 35.8887 76.2207 35.8887L44.6777 35.8887L44.6777 4.3457C44.6777 2.00195 42.6758 0 40.2832 0C37.8906 0 35.9375 2.00195 35.9375 4.3457L35.9375 35.8887L4.3457 35.8887C2.00195 35.8887 0 37.8906 0 40.2832Z" fill="#ffffff" fill-opacity="0.85"/>
 </g>
</svg>
